<svg xmlns="http://www.w3.org/2000/svg" version="1.1" xmlns:xlink="http://www.w3.org/1999/xlink" xmlns:svgjs="http://svgjs.dev/svgjs" width="256px" height="256px"><svg fill="#c547ff" width="256px" height="256px" viewBox="-3.2 -3.2 38.40 38.40" version="1.1" xmlns="http://www.w3.org/2000/svg" stroke="#c547ff" stroke-width="0.00032">

<g id="SvgjsG1005" stroke-width="0"></g>

<g id="SvgjsG1004" stroke-linecap="round" stroke-linejoin="round" stroke="#CCCCCC" stroke-width="1.152"></g>

<g id="SvgjsG1003"> <title>seagull</title> <path d="M23.299 23.035c5.059-2.259 8.561-7.693 6.627-14.911-1.634-6.099-5.088-6.584-8.432-3.333-1.484 1.442-4.443 1.364-4.9 3.505 7.082-2.842 8.613 2.027 3.154 2.919-7.372 1.205-10.843 10.327-18.427 10.514h-0c1.034 1.281 4.715 2.568 9.161 2.998l2.91 5.035c-0.525 0.271-1.007 0.632-1.414 1.094h14.325c-1.060-1.384-3.471-2.065-5.62-1.575l-2.731-4.726c1.858-0.286 3.678-0.775 5.348-1.52zM22.99 6.104c0-0.461 0.374-0.835 0.835-0.835s0.835 0.374 0.835 0.835c0 0.461-0.374 0.835-0.835 0.835s-0.835-0.374-0.835-0.835zM19.717 29.591c-0.19 0.080-0.375 0.172-0.554 0.274-1.322-0.744-3.192-0.978-4.841-0.479l-2.639-4.566c1.685 0.1 3.452 0.073 5.205-0.124l2.829 4.895z"></path> </g>

</svg><style>@media (prefers-color-scheme: light) { :root { filter: none; } }
@media (prefers-color-scheme: dark) { :root { filter: none; } }
</style></svg>